<?xml version="1.0" encoding="UTF-8"?>
<!DOCTYPE svg PUBLIC "-//W3C//DTD SVG 1.1//EN" "http://www.w3.org/Graphics/SVG/1.1/DTD/svg11.dtd">
<!-- Creator: CorelDRAW X7 -->
<svg xmlns="http://www.w3.org/2000/svg" xml:space="preserve" width="27.0932mm" height="27.0932mm" version="1.1" style="shape-rendering:geometricPrecision; text-rendering:geometricPrecision; image-rendering:optimizeQuality; fill-rule:evenodd; clip-rule:evenodd"
viewBox="0 0 2709 2709"
 xmlns:xlink="http://www.w3.org/1999/xlink">
 <defs>
  <style type="text/css">
   <![CDATA[
    .fil3 {fill:#FEFEFE}
    .fil1 {fill:#0049DC}
    .fil0 {fill:#FF96FD}
    .fil2 {fill:#FFFF33}
    .fil4 {fill:#373435;fill-rule:nonzero}
   ]]>
  </style>
 </defs>
 <g id="Layer_x0020_1">
  <metadata id="CorelCorpID_0Corel-Layer"/>
  <g id="_1153889440">
   <polygon class="fil0" points="2,2 2708,2 2708,2708 2,2708 "/>
   <g>
    <path class="fil1" d="M2031 1774c0,0 388,-285 112,-485 33,-63 14,-134 -37,-207 -110,-158 -819,-514 -1019,-622 -71,-38 -115,-61 -116,-61 -119,90 -257,314 -159,558 24,61 -152,201 -250,360 -130,209 -166,462 153,737 185,159 453,291 728,248 48,-8 97,-21 146,-41 176,-72 226,-210 246,-219 39,-16 209,-36 196,-268z"/>
    <path class="fil2" d="M523 901c545,47 851,134 1404,315 -89,611 -681,476 -770,153 -6,-22 -12,-42 -28,-49 -22,-13 -41,6 -62,29 -222,237 -726,120 -544,-448z"/>
    <path class="fil3" d="M1369 1863c-18,39 -35,72 -52,100 -54,-7 -102,-15 -145,-25 16,-37 33,-80 51,-127l146 52zm-76 134c-46,59 -100,85 -187,79 15,-27 30,-57 46,-92l5 -12c41,10 86,18 136,25zm-226 75c-36,-6 -72,-17 -104,-34 13,-28 28,-64 45,-111 34,13 71,25 113,36l-2 6c-18,40 -35,74 -52,103zm-46 -178c14,-40 29,-86 46,-139l122 44c-19,48 -37,92 -53,131 -44,-11 -82,-23 -115,-36zm-85 129c-26,-17 -49,-38 -67,-63 8,-23 17,-51 28,-86 23,13 50,27 80,40 -16,47 -30,82 -41,109zm-28 -184c11,-36 24,-78 39,-127l86 31c-16,53 -31,99 -44,138 -32,-14 -59,-28 -81,-42zm-63 78c-12,-27 -18,-58 -18,-92 11,9 24,19 38,29 -7,24 -14,45 -20,63zm-15 -137c5,-30 14,-64 29,-99l54 19c-14,45 -26,84 -37,119 -19,-14 -34,-27 -46,-39z"/>
    <path class="fil4" d="M1619 1395c-12,52 -48,78 -89,84 -16,2 -33,1 -49,-3 -16,-4 -32,-11 -45,-20 -37,-25 -60,-68 -49,-121l33 8c-8,37 9,67 35,85 10,7 22,13 34,16 12,3 25,3 37,2 27,-4 52,-22 61,-59l32 8z"/>
    <path class="fil4" d="M929 1228c-17,29 -44,44 -73,49 -20,4 -43,2 -63,-5 -20,-7 -39,-18 -54,-34 -22,-22 -35,-53 -31,-89l33 4c-3,25 7,46 22,62 11,12 25,20 40,25 16,6 32,7 47,5 20,-4 39,-15 50,-34l29 17z"/>
   </g>
  </g>
 </g>
</svg>
